<svg xmlns="http://www.w3.org/2000/svg" width="19.522" height="10.391" viewBox="0 9.131 19.522 10.391"><path d="m18.4 238.041-2.027-.608v-.478c.587-.41.944-1.086.944-1.806v-.945A2.207 2.207 0 0 0 15.113 232a2.207 2.207 0 0 0-2.204 2.204v.945c0 .72.358 1.396.945 1.806v.478l-1.417.425-1.417-.425v-.478c.587-.41.945-1.086.945-1.806v-.945A2.207 2.207 0 0 0 9.76 232a2.207 2.207 0 0 0-2.204 2.204v.945c0 .72.357 1.396.944 1.806v.478l-1.417.425-1.417-.425v-.478c.587-.41.945-1.086.945-1.806v-.945A2.207 2.207 0 0 0 4.408 232a2.207 2.207 0 0 0-2.204 2.204v.945c0 .72.358 1.396.945 1.806v.478l-2.027.608A1.565 1.565 0 0 0 0 239.55v2.842H19.52v-2.842c0-.7-.45-1.306-1.121-1.508Zm-3.287-5.411c.76 0 1.397.542 1.543 1.26h-.839a2.68 2.68 0 0 1-1.193-.283l-.203-.1-.16.16a.764.764 0 0 1-.537.222h-.153a1.577 1.577 0 0 1 1.542-1.26Zm-1.574 2.519v-.63h.185c.295 0 .575-.091.81-.26.405.17.844.26 1.283.26h.87v.63a1.58 1.58 0 0 1-.787 1.362l-.157.09v.898l-.63.42-.63-.42v-.897l-.156-.091a1.58 1.58 0 0 1-.788-1.362Zm-3.778-2.52c.76 0 1.396.543 1.542 1.26h-.838a2.68 2.68 0 0 1-1.193-.282l-.203-.1-.161.16a.764.764 0 0 1-.537.222h-.153a1.577 1.577 0 0 1 1.543-1.26Zm-1.575 2.52v-.63h.185c.295 0 .575-.091.81-.26.405.17.844.26 1.284.26h.87v.63a1.58 1.58 0 0 1-.787 1.362l-.158.09v.898l-.63.42-.629-.42v-.897l-.157-.091a1.58 1.58 0 0 1-.788-1.362Zm.579 2.863.996.664.996-.664 2.109.632c.403.121.673.485.673.905v2.212H5.982v-2.212c0-.42.27-.784.674-.905l2.109-.632Zm-4.357-5.382c.76 0 1.396.542 1.543 1.26h-.153a.765.765 0 0 1-.538-.223l-.16-.16-.203.1c-.369.185-.781.282-1.193.282h-.838a1.577 1.577 0 0 1 1.542-1.26Zm-1.574 2.519v-.63h.87c.44 0 .879-.09 1.284-.26.234.169.515.26.81.26h.184v.63a1.58 1.58 0 0 1-.787 1.362l-.157.09v.898l-.63.42-.63-.42v-.897l-.157-.091a1.58 1.58 0 0 1-.787-1.362Zm-2.204 4.4c0-.42.27-.784.673-.905l2.11-.633.995.665.996-.664.689.206a1.56 1.56 0 0 0-.74 1.331v2.212H.63v-2.212Zm18.262 2.212h-4.723v-2.212a1.56 1.56 0 0 0-.74-1.33l.688-.207.996.664.996-.664 2.11.632c.402.121.673.485.673.905v2.212Zm0 0" fill="#ed9728" fill-rule="evenodd" style="--darkreader-inline-fill:#ffbf44" transform="translate(0 -222.869)" data-name="Path 8610"/></svg>