<svg xmlns="http://www.w3.org/2000/svg" width="13.657" height="16.469" viewBox="19 322 13.657 16.469"><g data-name="invite friends"><g data-name="Group 2690"><g data-name="Group 2689"><g data-name="Path 8624"><path d="M46.418 174.829a2.714 2.714 0 0 0-2.711 2.711 2.714 2.714 0 0 0 2.711 2.712 2.714 2.714 0 0 0 2.712-2.712 2.714 2.714 0 0 0-2.712-2.711Zm0 4.218c-.83 0-1.506-.676-1.506-1.507 0-.83.676-1.506 1.506-1.506.831 0 1.507.676 1.507 1.506 0 .831-.676 1.507-1.507 1.507Z" fill="#ed9728" fill-rule="evenodd" style="--darkreader-inline-fill:#ffbf44" transform="translate(-24.707 152.795)"/><path d="M46.418 174.829a2.714 2.714 0 0 0-2.711 2.711 2.714 2.714 0 0 0 2.711 2.712 2.714 2.714 0 0 0 2.712-2.712 2.714 2.714 0 0 0-2.712-2.711Zm0 4.218c-.83 0-1.506-.676-1.506-1.507 0-.83.676-1.506 1.506-1.506.831 0 1.507.676 1.507 1.506 0 .831-.676 1.507-1.507 1.507Z" stroke-linejoin="round" stroke-linecap="round" stroke-width=".5" stroke="#fff" fill="transparent" style="--darkreader-inline-fill:transparent;--darkreader-inline-stroke:#ffffff" transform="translate(-24.707 152.795)"/></g></g></g><g data-name="Group 2692"><g data-name="Group 2691"><g data-name="Path 8625"><path d="M302.418 0a2.714 2.714 0 0 0-2.711 2.711 2.714 2.714 0 0 0 2.711 2.712 2.714 2.714 0 0 0 2.712-2.712A2.714 2.714 0 0 0 302.418 0Zm0 4.218a1.508 1.508 0 0 1 0-3.013c.831 0 1.507.676 1.507 1.506 0 .831-.676 1.507-1.507 1.507Z" fill="#ed9728" fill-rule="evenodd" style="--darkreader-inline-fill:#ffbf44" transform="translate(-272.473 322)"/><path d="M302.418 0a2.714 2.714 0 0 0-2.711 2.711 2.714 2.714 0 0 0 2.711 2.712 2.714 2.714 0 0 0 2.712-2.712A2.714 2.714 0 0 0 302.418 0Zm0 4.218a1.508 1.508 0 0 1 0-3.013c.831 0 1.507.676 1.507 1.506 0 .831-.676 1.507-1.507 1.507Z" stroke-linejoin="round" stroke-linecap="round" stroke-width=".5" stroke="#fff" fill="transparent" style="--darkreader-inline-fill:transparent;--darkreader-inline-stroke:#ffffff" transform="translate(-272.473 322)"/></g></g></g><g data-name="Group 2694"><g data-name="Group 2693"><g data-name="Path 8626"><path d="M302.418 343.415a2.714 2.714 0 0 0-2.711 2.711 2.714 2.714 0 0 0 2.711 2.712 2.714 2.714 0 0 0 2.712-2.712 2.714 2.714 0 0 0-2.712-2.711Zm0 4.218a1.508 1.508 0 0 1 0-3.013c.831 0 1.507.676 1.507 1.506 0 .831-.676 1.507-1.507 1.507Z" fill="#ed9728" fill-rule="evenodd" style="--darkreader-inline-fill:#ffbf44" transform="translate(-272.473 -10.369)"/><path d="M302.418 343.415a2.714 2.714 0 0 0-2.711 2.711 2.714 2.714 0 0 0 2.711 2.712 2.714 2.714 0 0 0 2.712-2.712 2.714 2.714 0 0 0-2.712-2.711Zm0 4.218a1.508 1.508 0 0 1 0-3.013c.831 0 1.507.676 1.507 1.506 0 .831-.676 1.507-1.507 1.507Z" stroke-linejoin="round" stroke-linecap="round" stroke-width=".5" stroke="#fff" fill="transparent" style="--darkreader-inline-fill:transparent;--darkreader-inline-stroke:#ffffff" transform="translate(-272.473 -10.369)"/></g></g></g><g data-name="Group 2696"><g data-name="Group 2695"><path d="M0 0h6.027v1.205H0V0z" fill="#ed9728" fill-rule="evenodd" style="--darkreader-inline-fill:#ffbf44" transform="matrix(.8397 -.5431 .5431 .8397 23.072 328.765)" data-name="Rectangle 1827"/></g></g><g data-name="Group 2698"><g data-name="Group 2697"><path d="M0 0h1.205v5.866H0V0z" fill="#ed9728" fill-rule="evenodd" style="--darkreader-inline-fill:#ffbf44" transform="rotate(-57.016 317.138 144.745) scale(.99998)" data-name="Rectangle 1828"/></g></g></g></svg>