<svg xmlns="http://www.w3.org/2000/svg" width="15.408" height="15.407"><g data-name="Group 2725"><path d="M102.657 221.782a.257.257 0 0 0-.257.257v1.54a.257.257 0 0 0 .514 0v-1.54a.257.257 0 0 0-.257-.257Z" fill="#ed9728" fill-rule="evenodd" style="--darkreader-inline-fill:#ffbf44" transform="translate(-99.318 -215.108)" data-name="Path 8657"/><path d="m3.366.092-2.428.971C.254 1.316 0 1.66 0 2.331v10.788c0 .671.254 1.015.932 1.266l2.44.976c.12.046.241.069.36.069.516 0 .89-.432.89-1.026V1.047c0-.73-.582-1.21-1.256-.955Zm.743 14.312c0 .306-.152.512-.377.512a.508.508 0 0 1-.175-.034l-2.44-.976c-.485-.18-.603-.334-.603-.787V2.331c0-.453.118-.607.609-.789L3.553.57A.511.511 0 0 1 3.73.535c.226 0 .378.205.378.512v13.357Z" fill="#ed9728" fill-rule="evenodd" style="--darkreader-inline-fill:#ffbf44" transform="translate(0 -.023)" data-name="Path 8658"/><path d="M169.857 34.562h3.627c.425 0 .77.345.77.77v3.852a.257.257 0 1 0 .514 0v-3.852c0-.708-.576-1.284-1.284-1.284h-3.627a.257.257 0 0 0 0 .514Z" fill="#ed9728" fill-rule="evenodd" style="--darkreader-inline-fill:#ffbf44" transform="translate(-164.496 -33.024)" data-name="Path 8659"/><path d="M175.546 298.582a.257.257 0 0 0-.256.257v3.852c0 .425-.346.77-.77.77h-3.596a.257.257 0 0 0 0 .514h3.595c.708 0 1.284-.576 1.284-1.284v-3.852a.257.257 0 0 0-.257-.257Z" fill="#ed9728" fill-rule="evenodd" style="--darkreader-inline-fill:#ffbf44" transform="translate(-165.53 -289.597)" data-name="Path 8660"/><path d="M197.473 164.765a.257.257 0 0 0-.056-.084l-2.568-2.568a.257.257 0 1 0-.363.363l2.13 2.13h-8.625a.257.257 0 0 0 0 .514h8.625l-2.13 2.13a.257.257 0 1 0 .363.363l2.568-2.568a.257.257 0 0 0 .056-.28Z" fill="#ed9728" fill-rule="evenodd" style="--darkreader-inline-fill:#ffbf44" transform="translate(-182.084 -157.162)" data-name="Path 8661"/></g></svg>