<svg xmlns="http://www.w3.org/2000/svg" width="19.521" height="19.521" viewBox="16 185 19.521 19.521"><g data-name="settings"><path d="M108.426 114.049a5.628 5.628 0 0 0 11.253 0 5.633 5.633 0 0 0-5.626-5.627 5.633 5.633 0 0 0-5.627 5.627Zm3.31-.624c0-.152.107-.28.244-.344v.705a.388.388 0 0 1-.245-.36Zm.214-.935v-.41c0-1.148.933-2.081 2.08-2.081 1.148 0 2.081.933 2.081 2.08v.401a.747.747 0 0 0-.032-.006c-.007-.124-.077-.206-.183-.325-.091-.1-.214-.229-.49-.526a.446.446 0 0 0-.573-.07c-.71.464-1.574.697-2.372.64a.45.45 0 0 0-.45.285l-.061.012Zm4.13.574a.389.389 0 0 1 0 .722v-.722Zm-3.528.989v-1.283c.85.032 1.75-.213 2.505-.681.25.266.389.413.451.484v1.48a1.455 1.455 0 0 1-1.452 1.452 1.463 1.463 0 0 1-1.504-1.452Zm1.504 2.024c.251 0 .512-.052.698-.124v.2c0 .194.111.373.282.462a1.382 1.382 0 0 1-1.997.014.538.538 0 0 0 .31-.485v-.18c.232.079.48.113.707.113Zm-1.593.776.13.139c.79.838 2.085.838 2.874 0l.142-.15 1.94.75a.978.978 0 0 1 .07.036 5.049 5.049 0 0 1-7.132 0c.035-.02.058-.03.067-.034l.003-.002 1.906-.739Zm5.544.341a1.647 1.647 0 0 0-.241-.131l-.006-.002-2.434-.943v-.49c.38-.307.646-.747.727-1.248a.963.963 0 0 0 .63-1.56v-.74a2.656 2.656 0 0 0-2.653-2.653 2.656 2.656 0 0 0-2.652 2.653v.76a.909.909 0 0 0-.215.585c0 .478.351.89.846.955.083.49.349.96.767 1.28v.458l-.34.132-2.09.81-.006.003a1.624 1.624 0 0 0-.241.13c-2.631-3.3-.267-8.199 3.954-8.199 4.22 0 6.584 4.9 3.954 8.2Zm0 0" fill="#ed9728" fill-rule="evenodd" style="--darkreader-inline-fill:#ffbf44" transform="translate(-88.292 80.712)" data-name="Path 8601"/><path d="M273.927 7.522h-1.263a7.91 7.91 0 0 0-.647-1.553v-.005l.894-.894a.888.888 0 0 0 0-1.257l-1.909-1.91a.888.888 0 0 0-1.257 0l-.894.895h-.004a7.894 7.894 0 0 0-1.55-.643c-.002-.001-.003-.002-.003-.004V.888a.89.89 0 0 0-.89-.888h-.704a.286.286 0 0 0 0 .572h.705c.175 0 .317.142.317.316v1.263c0 .253.17.48.413.552.496.146.98.347 1.438.597a.579.579 0 0 0 .683-.098l.894-.894a.317.317 0 0 1 .448 0l1.909 1.91a.317.317 0 0 1 0 .448l-.894.894c-.18.179-.22.46-.098.683.25.457.45.941.597 1.438a.58.58 0 0 0 .552.413h1.263c.175 0 .317.142.317.316v.683a.286.286 0 1 0 .571 0V8.41a.89.89 0 0 0-.888-.888Zm0 0" fill="#ed9728" fill-rule="evenodd" style="--darkreader-inline-fill:#ffbf44" transform="translate(-239.294 185)" data-name="Path 8602"/><path d="M19.236 10.142a.286.286 0 0 0-.286.286v.683a.317.317 0 0 1-.317.317H17.37c-.253 0-.48.17-.552.413-.146.496-.347.98-.597 1.437a.58.58 0 0 0 .098.684l.894.894a.316.316 0 0 1 0 .448l-1.91 1.909a.317.317 0 0 1-.447 0l-.894-.894a.58.58 0 0 0-.684-.098 7.32 7.32 0 0 1-1.437.597.579.579 0 0 0-.413.552v1.263a.317.317 0 0 1-.317.317h-2.7a.317.317 0 0 1-.317-.317V17.37c0-.253-.17-.48-.413-.552a7.32 7.32 0 0 1-1.438-.597.579.579 0 0 0-.683.098l-.894.894a.317.317 0 0 1-.448 0l-1.91-1.91a.316.316 0 0 1 0-.447l.895-.894c.179-.18.22-.46.097-.684a7.324 7.324 0 0 1-.597-1.437.579.579 0 0 0-.552-.414H.89a.317.317 0 0 1-.317-.316v-2.7c0-.175.142-.317.317-.317H2.15c.254 0 .48-.17.552-.413.146-.496.347-.98.597-1.438a.579.579 0 0 0-.098-.683l-.893-.894a.316.316 0 0 1 0-.448l1.909-1.91a.317.317 0 0 1 .448 0l.894.894c.18.18.46.22.683.098.458-.25.941-.45 1.438-.597a.579.579 0 0 0 .413-.552V.89c0-.175.142-.317.317-.317h.66a.286.286 0 1 0 0-.572h-.66a.89.89 0 0 0-.89.889V2.15c0 .002 0 .003-.002.004a7.901 7.901 0 0 0-1.55.644h-.005l-.894-.895a.888.888 0 0 0-1.256 0l-1.91 1.91a.888.888 0 0 0 0 1.256l.894.894v.005a7.899 7.899 0 0 0-.647 1.553H.89A.89.89 0 0 0 0 8.41v2.7c0 .49.399.889.889.889H2.15c.002 0 .003 0 .004.002a7.89 7.89 0 0 0 .644 1.55v.005l-.895.894a.888.888 0 0 0 0 1.257l1.91 1.91a.89.89 0 0 0 1.256 0l.894-.895h.005a7.901 7.901 0 0 0 1.553.647v1.263c0 .49.399.888.889.888h2.7a.89.89 0 0 0 .888-.888V17.37l.003-.003a7.9 7.9 0 0 0 1.55-.644h.005l.894.894a.89.89 0 0 0 1.257 0l1.91-1.91a.888.888 0 0 0 0-1.256l-.895-.894v-.004A7.901 7.901 0 0 0 17.37 12h1.263a.89.89 0 0 0 .888-.89v-.682a.286.286 0 0 0-.285-.286Zm0 0" fill="#ed9728" fill-rule="evenodd" style="--darkreader-inline-fill:#ffbf44" transform="translate(16 185)" data-name="Path 8603"/></g></svg>